<svg width="38" height="39" viewBox="0 0 38 39" fill="none" xmlns="http://www.w3.org/2000/svg">
<path fill-rule="evenodd" clip-rule="evenodd" d="M6.52119 24.7918C9.82389 21.9446 14.1296 20.2222 18.839 20.2222C23.5483 20.2222 27.8541 21.9446 31.1568 24.7918V19.5H31.123C31.1454 19.2019 31.1568 18.9009 31.1568 18.5972C31.1568 11.9161 25.6419 6.5 18.839 6.5C12.036 6.5 6.52119 11.9161 6.52119 18.5972C6.52119 18.9009 6.53258 19.2019 6.55497 19.5H6.52119V24.7918ZM0.0212592 38.1H0V18.0556H0.0136753C0.394443 8.01957 8.67712 0 18.839 0C29.0008 0 37.2835 8.01957 37.6643 18.0555L37.678 18.0556V38.1H37.6567C37.6708 38.3982 37.678 38.6983 37.678 39H31.1554C31.1563 38.9399 31.1568 38.8797 31.1568 38.8194C31.1568 32.1383 25.6419 26.7222 18.839 26.7222C12.036 26.7222 6.52119 32.1383 6.52119 38.8194C6.52119 38.8797 6.52164 38.9399 6.52253 39H0C0 38.6983 0.00713995 38.3982 0.0212592 38.1Z" fill="#A8A8A8"/>
</svg>
