<svg width="181" height="50" viewBox="0 0 181 50" fill="none" xmlns="http://www.w3.org/2000/svg">
<path d="M80.066 21H77.33V15.546L77.42 11.892H77.384L74.45 21H71.948L69.014 11.892H68.978L69.068 15.546V21H66.314V9.12H70.724L72.596 15.168L73.262 17.688H73.298L73.982 15.186L75.836 9.12H80.066V21ZM89.8248 8.94C91.0248 8.94 92.0568 9.186 92.9208 9.678C93.7968 10.158 94.4688 10.86 94.9368 11.784C95.4048 12.696 95.6388 13.788 95.6388 15.06C95.6388 16.332 95.4048 17.43 94.9368 18.354C94.4688 19.266 93.7968 19.968 92.9208 20.46C92.0568 20.94 91.0248 21.18 89.8248 21.18C88.6248 21.18 87.5868 20.94 86.7108 20.46C85.8348 19.968 85.1628 19.266 84.6948 18.354C84.2268 17.43 83.9928 16.332 83.9928 15.06C83.9928 13.788 84.2268 12.696 84.6948 11.784C85.1628 10.86 85.8348 10.158 86.7108 9.678C87.5868 9.186 88.6248 8.94 89.8248 8.94ZM89.8248 11.37C88.9608 11.37 88.3008 11.682 87.8448 12.306C87.3888 12.93 87.1608 13.848 87.1608 15.06C87.1608 16.272 87.3888 17.19 87.8448 17.814C88.3008 18.438 88.9608 18.75 89.8248 18.75C90.6888 18.75 91.3428 18.438 91.7868 17.814C92.2428 17.19 92.4708 16.272 92.4708 15.06C92.4708 13.848 92.2428 12.93 91.7868 12.306C91.3428 11.682 90.6888 11.37 89.8248 11.37ZM104.464 16.662H102.61V21H99.5683V9.12H105.238C106.678 9.12 107.782 9.444 108.55 10.092C109.33 10.74 109.72 11.676 109.72 12.9C109.72 13.764 109.522 14.484 109.126 15.06C108.73 15.636 108.154 16.062 107.398 16.338L110.422 21H107.002L104.464 16.662ZM102.61 14.466H104.716C105.376 14.466 105.856 14.346 106.156 14.106C106.456 13.866 106.606 13.482 106.606 12.954C106.606 12.438 106.456 12.06 106.156 11.82C105.856 11.58 105.376 11.46 104.716 11.46H102.61V14.466ZM123.264 18.606V21H113.778V9.12H123.03V11.514H116.874V13.926H121.77V16.176H116.874V18.606H123.264ZM71.768 30.12C73.244 30.12 74.378 30.462 75.17 31.146C75.962 31.818 76.358 32.79 76.358 34.062C76.358 35.274 75.962 36.216 75.17 36.888C74.378 37.548 73.244 37.878 71.768 37.878H69.41V42H66.314V30.12H71.768ZM71.282 35.61C71.954 35.61 72.446 35.484 72.758 35.232C73.082 34.968 73.244 34.566 73.244 34.026C73.244 33.498 73.082 33.108 72.758 32.856C72.446 32.592 71.954 32.46 71.282 32.46H69.41V35.61H71.282ZM85.7285 39.318H81.6245L80.7965 42H77.6825L81.8585 30.12H85.5665L89.7245 42H86.5385L85.7285 39.318ZM85.0805 37.212L84.2165 34.368L83.6945 32.496H83.6585L83.1725 34.35L82.2725 37.212H85.0805ZM97.9462 30.12C99.8062 30.12 101.228 30.636 102.212 31.668C103.208 32.688 103.706 34.152 103.706 36.06C103.706 37.968 103.208 39.438 102.212 40.47C101.228 41.49 99.8062 42 97.9462 42H92.9062V30.12H97.9462ZM97.6402 39.66C98.6362 39.66 99.3682 39.36 99.8362 38.76C100.304 38.16 100.538 37.26 100.538 36.06C100.538 34.86 100.304 33.96 99.8362 33.36C99.3682 32.76 98.6362 32.46 97.6402 32.46H96.0022V39.66H97.6402ZM112.666 30.12C114.526 30.12 115.948 30.636 116.932 31.668C117.928 32.688 118.426 34.152 118.426 36.06C118.426 37.968 117.928 39.438 116.932 40.47C115.948 41.49 114.526 42 112.666 42H107.626V30.12H112.666ZM112.36 39.66C113.356 39.66 114.088 39.36 114.556 38.76C115.024 38.16 115.258 37.26 115.258 36.06C115.258 34.86 115.024 33.96 114.556 33.36C114.088 32.76 113.356 32.46 112.36 32.46H110.722V39.66H112.36ZM125.442 42H122.346V30.12H125.442V42ZM140.587 42H137.149L133.459 35.574L132.559 33.774H132.541L132.613 36.006V42H129.877V30.12H133.314L137.005 36.546L137.905 38.346H137.923L137.851 36.114V30.12H140.587V42ZM155.674 35.574V42H153.514L153.424 40.596C152.74 41.652 151.606 42.18 150.022 42.18C148.942 42.18 147.982 41.946 147.142 41.478C146.314 40.998 145.666 40.302 145.198 39.39C144.73 38.466 144.496 37.362 144.496 36.078C144.496 34.806 144.736 33.714 145.216 32.802C145.696 31.878 146.38 31.17 147.268 30.678C148.156 30.186 149.206 29.94 150.418 29.94C151.774 29.94 152.866 30.18 153.694 30.66C154.522 31.14 155.176 31.914 155.656 32.982L152.794 34.116C152.65 33.528 152.38 33.09 151.984 32.802C151.588 32.514 151.096 32.37 150.508 32.37C149.596 32.37 148.894 32.682 148.402 33.306C147.922 33.93 147.682 34.848 147.682 36.06C147.682 38.556 148.654 39.804 150.598 39.804C151.33 39.804 151.918 39.636 152.362 39.3C152.818 38.964 153.046 38.478 153.046 37.842V37.662H150.094V35.574H155.674Z" fill="white"/>
<g clip-path="url(#clip0)">
<path fill-rule="evenodd" clip-rule="evenodd" d="M6.799 0H43.2015C46.9574 0 50.0005 3.04885 50.0005 6.799V43.2015C50.0005 46.9574 46.9516 50.0005 43.2015 50.0005H6.799C3.04315 50.0005 0 46.9516 0 43.2015V6.799C0 3.04315 3.04885 0 6.799 0V0ZM6.799 2.27345C4.3029 2.27345 2.2736 4.3008 2.2736 6.79885V43.2014C2.2736 45.6975 4.30095 47.7267 6.799 47.7267H43.2015C45.6976 47.7267 47.7269 45.6994 47.7269 43.2014V6.79885C47.7269 4.30275 45.6996 2.27345 43.2015 2.27345H6.799ZM25 6.81835H27.2735V9.0918H25V6.81835ZM25 13.6369H27.2735V18.1817H25V13.6369ZM25 22.7269H27.2735V27.2738H25V22.7269ZM25 31.8188H27.2735V36.3638H25V31.8188ZM25 40.9089H27.2735V43.1823H25V40.9089ZM31.8185 25.0009H36.3634V27.2743H31.8185V25.0009ZM40.9085 25.0009H43.1819V27.2743H40.9085V25.0009Z" fill="white"/>
</g>
<defs>
<clipPath id="clip0">
<rect width="50" height="50" fill="white"/>
</clipPath>
</defs>
</svg>
