<svg width="137" height="40" viewBox="0 0 137 40" fill="none" xmlns="http://www.w3.org/2000/svg">
<path fill-rule="evenodd" clip-rule="evenodd" d="M116.727 0.052948H136.522V19.848H116.75V39.1775C116.75 39.1775 112.943 39.1775 102.247 39.0461C97.0432 38.9821 95.455 37.2863 89.4445 30.8685C88.914 30.302 88.349 29.6988 87.7441 29.0566C80.2854 21.139 78.9048 19.8558 73.2409 19.8558H58.7646V39.1775C58.7646 39.1775 54.9567 39.1775 44.2614 39.0461C39.0573 38.9821 37.4691 37.2863 31.4587 30.8685C30.9282 30.302 30.3632 29.6988 29.7583 29.0566C22.2996 21.139 20.9189 19.8558 15.2551 19.8558H0.751953V0.0640055H15.2551C19.6551 0.0640055 22.6597 2.82879 26.3543 6.22852C27.4155 7.20506 28.5337 8.23399 29.7583 9.26483C31.3915 10.6397 32.8355 12.1318 34.2075 13.5496C37.4457 16.8956 40.2832 19.8276 44.2614 19.8276H58.7378V0.0640055H73.2409C77.6409 0.0640055 80.6455 2.82878 84.3401 6.2285C85.4014 7.20505 86.5195 8.23399 87.7441 9.26483C89.3773 10.6397 90.8213 12.1318 92.1933 13.5495L92.1934 13.5496C95.4315 16.8956 98.269 19.8276 102.247 19.8276H116.727V0.052948Z" fill="#9BA3B5"/>
</svg>
