<svg width="210" height="210" viewBox="0 0 210 210" fill="none" xmlns="http://www.w3.org/2000/svg">
<rect x="0.125" y="0.10257" width="209.025" height="209.025" fill="#E9ECF2"/>
<path fill-rule="evenodd" clip-rule="evenodd" d="M152.727 85.0529H172.522V104.848H152.75V124.178C152.75 124.178 148.943 124.178 138.247 124.046C133.043 123.982 131.455 122.286 125.444 115.868C124.914 115.302 124.349 114.699 123.744 114.057C116.285 106.139 114.905 104.856 109.241 104.856H94.7646V124.178C94.7646 124.178 90.9567 124.178 80.2614 124.046C75.0573 123.982 73.4691 122.286 67.4587 115.868C66.9282 115.302 66.3632 114.699 65.7583 114.057C58.2996 106.139 56.9189 104.856 51.2551 104.856H36.752V85.064H51.2551C55.6551 85.064 58.6597 87.8288 62.3543 91.2285C63.4155 92.2051 64.5337 93.234 65.7583 94.2648C67.3915 95.6397 68.8355 97.1318 70.2075 98.5496C73.4457 101.896 76.2832 104.828 80.2614 104.828H94.7378V85.064H109.241C113.641 85.064 116.645 87.8288 120.34 91.2285C121.401 92.2051 122.52 93.234 123.744 94.2648C125.377 95.6397 126.821 97.1318 128.193 98.5495L128.193 98.5496C131.432 101.896 134.269 104.828 138.247 104.828H152.727V85.0529Z" fill="#9BA3B5"/>
</svg>
